<svg id="Capa_1" enable-background="new 0 0 512 512" height="512" viewBox="0 0 512 512" width="512" xmlns="http://www.w3.org/2000/svg"><g><path d="m392 208-30 30v37l30 30h98v-97z" fill="#596c76"/><path d="m294 208-30 30v37l30 30h98v-97l-31.875-15h-24.437z" fill="#ffe6b3"/><path d="m294 110v98h98v-98l-26.25-15h-41.312z" fill="#596c76"/><path d="m196 208-30 30v37l30 30h98v-97z" fill="#596c76"/><path d="m99 208-30 30v37l30 30h97v-97z" fill="#ffe6b3"/><path d="m286 350-137.432 45 137.432 45 15-18.281v-26.719-20.625z" fill="#ffe1ba"/><path d="m301 421.719v-26.719h-152.432l137.432 45z" fill="#ffbfab"/><path d="m467 350h-181v45 45h181c24.814 0 45-20.186 45-45s-20.186-45-45-45z" fill="#fed843"/><path d="m467 440c24.814 0 45-20.186 45-45h-226v45z" fill="#ff9100"/><path d="m294 12h98v98h-98z" fill="#ffe6b3"/><path d="m69 373h-39l-30 30v97h99v-97z" fill="#596c76"/><path d="m69 275h-39l-30 30v98h99v-98z" fill="#ffe6b3"/><path d="m69 178h-39l-30 30v97h99v-97z" fill="#596c76"/><path d="m0 110h99v98h-99z" fill="#ffe6b3"/></g></svg>