<svg id="Layer_3" enable-background="new 0 0 64 64" height="512" viewBox="0 0 64 64" width="512" xmlns="http://www.w3.org/2000/svg"><g><g><path d="m2 2h60v46h-60z" fill="#a8b0bc"/><path d="m2 40.966c3.048.67 6.227 1.034 9.5 1.034 22.368 0 40.5-16.565 40.5-37 0-1.011-.057-2.009-.144-3h-49.856z" fill="#cbd0d7"/><path d="m20 34h10v10h-10z" fill="#96cc7f"/><path d="m20 41.177c3.526-.688 6.879-1.799 10-3.266v-3.911h-10z" fill="#c0e0b2"/><path d="m6 34h10v10h-10z" fill="#96cc7f"/><path d="m6 41.643c1.8.226 3.632.357 5.5.357 1.522 0 3.022-.083 4.5-.233v-7.767h-10z" fill="#c0e0b2"/><path d="m48 6h10v10h-10z" fill="#96cc7f"/><g fill="#c0e0b2"><path d="m48 6v10h2.18c1.079-3.171 1.691-6.527 1.792-10z"/><path d="m6 6h10v10h-10z"/><path d="m20 6h10v10h-10z"/><path d="m34 6h10v10h-10z"/><path d="m20 20h10v10h-10z"/></g><path d="m48 34h10v10h-10z" fill="#96cc7f"/><circle cx="41" cy="41" fill="#666e78" r="12"/><path d="m50.847 47.847c-.815 1.169-1.831 2.185-3 3l10.153 10.153 3-3z" fill="#666e78"/><circle cx="41" cy="41" fill="#8bd2f5" r="8"/><path d="m45.762 34.583c-1.331-.99-2.975-1.583-4.762-1.583-4.418 0-8 3.582-8 8 0 2.091.808 3.988 2.121 5.413 5.47-1.562 9.652-6.143 10.641-11.83z" fill="#b9e4f9"/></g><g><path d="m62 1h-60c-.552 0-1 .448-1 1v46c0 .552.448 1 1 1h28.774c2.382 3.038 6.075 5 10.226 5 2.454 0 4.743-.696 6.703-1.883l10.59 10.59 1.414-1.414-10.35-10.35c.573-.482 1.104-1.013 1.586-1.586l10.35 10.35 1.414-1.414-9.293-9.293h8.586c.552 0 1-.448 1-1v-46c0-.552-.448-1-1-1zm-21 51c-6.065 0-11-4.935-11-11s4.935-11 11-11 11 4.935 11 11-4.935 11-11 11zm-12-15.992c-.642 1.538-1 3.224-1 4.992 0 .682.069 1.346.17 2h-7.17v-8h8zm23.521-1.008h4.479v8h-3.17c.102-.654.17-1.318.17-2 0-2.165-.539-4.203-1.479-6zm8.479 12h-8.479c.334-.638.618-1.306.843-2h4.636c.552 0 1-.448 1-1v-10c0-.552-.448-1-1-1h-6.774c-2.382-3.038-6.075-5-10.226-5-4.251 0-8.021 2.06-10.394 5.225-.17-.133-.374-.225-.606-.225h-10c-.552 0-1 .448-1 1v10c0 .552.448 1 1 1h8.636c.225.694.509 1.362.843 2h-26.479v-44h58z"/><path d="m6 17h10c.552 0 1-.448 1-1v-10c0-.552-.448-1-1-1h-10c-.552 0-1 .448-1 1v10c0 .552.448 1 1 1zm1-10h8v8h-8z"/><path d="m20 17h10c.552 0 1-.448 1-1v-10c0-.552-.448-1-1-1h-10c-.552 0-1 .448-1 1v10c0 .552.448 1 1 1zm1-10h8v8h-8z"/><path d="m20 31h10c.552 0 1-.448 1-1v-10c0-.552-.448-1-1-1h-10c-.552 0-1 .448-1 1v10c0 .552.448 1 1 1zm1-10h8v8h-8z"/><path d="m6 45h10c.552 0 1-.448 1-1v-10c0-.552-.448-1-1-1h-10c-.552 0-1 .448-1 1v10c0 .552.448 1 1 1zm1-10h8v8h-8z"/><path d="m34 17h10c.552 0 1-.448 1-1v-10c0-.552-.448-1-1-1h-10c-.552 0-1 .448-1 1v10c0 .552.448 1 1 1zm1-10h8v8h-8z"/><path d="m48 17h10c.552 0 1-.448 1-1v-10c0-.552-.448-1-1-1h-10c-.552 0-1 .448-1 1v10c0 .552.448 1 1 1zm1-10h8v8h-8z"/><path d="m41 32c-4.962 0-9 4.038-9 9s4.038 9 9 9 9-4.038 9-9-4.038-9-9-9zm0 16c-3.86 0-7-3.14-7-7s3.14-7 7-7 7 3.14 7 7-3.14 7-7 7z"/></g></g></svg>