<svg id="Layer_3" enable-background="new 0 0 64 64" height="512" viewBox="0 0 64 64" width="512" xmlns="http://www.w3.org/2000/svg"><g><path d="m7 7h8v8h-8z"/><path d="m21 7h8v8h-8z"/><circle cx="41" cy="41" r="7"/><path d="m21 21h8v8h-8z"/><path d="m49.357 50.943 9.643 9.643 1.586-1.586-9.643-9.643c-.482.573-1.013 1.104-1.586 1.586z"/><path d="m41 30c-6.065 0-11 4.935-11 11s4.935 11 11 11 11-4.935 11-11-4.935-11-11-11zm0 20c-4.962 0-9-4.038-9-9s4.038-9 9-9 9 4.038 9 9-4.038 9-9 9z"/><path d="m7 35h8v8h-8z"/><path d="m57 43v-8h-4.479c.94 1.797 1.479 3.835 1.479 6 0 .682-.069 1.346-.17 2z"/><path d="m3 3v44h26.479c-.334-.638-.618-1.306-.843-2h-8.636c-.552 0-1-.448-1-1v-10c0-.552.448-1 1-1h10c.232 0 .436.092.606.225 2.373-3.165 6.143-5.225 10.394-5.225 4.151 0 7.844 1.962 10.226 5h6.774c.552 0 1 .448 1 1v10c0 .552-.448 1-1 1h-4.636c-.225.694-.509 1.362-.843 2h8.479v-44zm14 41c0 .552-.448 1-1 1h-10c-.552 0-1-.448-1-1v-10c0-.552.448-1 1-1h10c.552 0 1 .448 1 1zm0-28c0 .552-.448 1-1 1h-10c-.552 0-1-.448-1-1v-10c0-.552.448-1 1-1h10c.552 0 1 .448 1 1zm14 14c0 .552-.448 1-1 1h-10c-.552 0-1-.448-1-1v-10c0-.552.448-1 1-1h10c.552 0 1 .448 1 1zm0-14c0 .552-.448 1-1 1h-10c-.552 0-1-.448-1-1v-10c0-.552.448-1 1-1h10c.552 0 1 .448 1 1zm14 0c0 .552-.448 1-1 1h-10c-.552 0-1-.448-1-1v-10c0-.552.448-1 1-1h10c.552 0 1 .448 1 1zm14 0c0 .552-.448 1-1 1h-10c-.552 0-1-.448-1-1v-10c0-.552.448-1 1-1h10c.552 0 1 .448 1 1z"/><path d="m49 7h8v8h-8z"/><path d="m29 35h-8v8h7.17c-.101-.654-.17-1.318-.17-2 0-1.768.358-3.454 1-4.992z"/><path d="m35 7h8v8h-8z"/></g></svg>