<svg id="Layer_1" enable-background="new 0 0 128 128" height="512" viewBox="0 0 128 128" width="512" xmlns="http://www.w3.org/2000/svg"><path d="m41.895 8.687h-29.807c-1.816 0-3.294 1.478-3.294 3.294v29.807c0 1.816 1.478 3.294 3.294 3.294h29.807c1.816 0 3.294-1.478 3.294-3.294v-29.807c0-1.816-1.478-3.294-3.294-3.294z" fill="#e6e7e8"/><path d="m51.244 45.082h29.807c1.816 0 3.294-1.478 3.294-3.294v-29.807c0-1.816-1.478-3.294-3.294-3.294h-29.807c-1.816 0-3.294 1.478-3.294 3.294v29.807c0 1.817 1.477 3.294 3.294 3.294z" fill="#e6e7e8"/><path d="m120.206 8.687h-29.807c-1.816 0-3.294 1.478-3.294 3.294v29.807c0 1.816 1.478 3.294 3.294 3.294h29.807c1.816 0 3.294-1.478 3.294-3.294v-29.807c0-1.816-1.478-3.294-3.294-3.294z" fill="#e6e7e8"/><path d="m41.895 47.949h-29.807c-1.816 0-3.294 1.478-3.294 3.294v29.807c0 1.816 1.478 3.294 3.294 3.294h29.807c1.816 0 3.294-1.478 3.294-3.294v-29.807c0-1.816-1.478-3.294-3.294-3.294z" fill="#e6e7e8"/><path d="m120.206 47.949h-29.807c-1.816 0-3.294 1.478-3.294 3.294v29.661c-.501-.146-1.016-.252-1.553-.273-.62-.025-1.224.04-1.804.184l-2.785-3.003c2.454-3.138 3.876-6.943 4.029-11 .192-5.096-1.612-9.963-5.079-13.702-3.468-3.74-8.184-5.905-13.281-6.098-5.091-.204-9.962 1.611-13.702 5.079-7.72 7.159-8.177 19.263-1.019 26.983 3.468 3.74 8.184 5.905 13.281 6.098.247.009.492.014.738.014 3.793 0 7.425-1.123 10.538-3.199l2.806 3.026c-.185.564-.32 1.148-.343 1.758-.006.148 0 .294.004.441h-27.691c-1.816 0-3.294 1.478-3.294 3.294v29.807c0 1.816 1.478 3.294 3.294 3.294h29.807c1.816 0 3.294-1.478 3.294-3.294v-24.945l2.761 2.977v21.967c0 1.816 1.478 3.294 3.294 3.294h29.807c1.816 0 3.294-1.478 3.294-3.294v-29.806c0-1.816-1.478-3.294-3.294-3.294h-25.994l-2.658-2.867h28.652c1.816 0 3.294-1.478 3.294-3.294v-29.808c-.001-1.816-1.479-3.294-3.295-3.294z" fill="#e6e7e8"/><path d="m41.895 87.212h-29.807c-1.816 0-3.294 1.478-3.294 3.294v29.807c0 1.816 1.478 3.294 3.294 3.294h29.807c1.816 0 3.294-1.478 3.294-3.294v-29.807c0-1.817-1.478-3.294-3.294-3.294z" fill="#e6e7e8"/><g fill="#d4fbff"><path d="m37.503 5.393h-29.807c-1.213 0-2.196.984-2.196 2.196v29.807c0 1.213.983 2.196 2.196 2.196h29.807c1.213 0 2.196-.983 2.196-2.196v-29.807c0-1.212-.983-2.196-2.196-2.196z"/><path d="m76.659 5.393h-29.807c-1.213 0-2.196.983-2.196 2.196v29.807c0 1.213.983 2.196 2.196 2.196h29.807c1.213 0 2.196-.983 2.196-2.196v-29.807c0-1.212-.983-2.196-2.196-2.196z"/><path d="m115.815 5.393h-29.808c-1.213 0-2.196.983-2.196 2.196v29.807c0 1.213.983 2.196 2.196 2.196h29.807c1.213 0 2.196-.983 2.196-2.196v-29.807c0-1.212-.983-2.196-2.195-2.196z"/><path d="m37.503 44.656h-29.807c-1.213 0-2.196.983-2.196 2.196v29.807c0 1.213.983 2.196 2.196 2.196h29.807c1.213 0 2.196-.983 2.196-2.196v-29.807c0-1.213-.983-2.196-2.196-2.196z"/><path d="m115.815 44.656h-29.808c-1.213 0-2.196.983-2.196 2.196v29.807c0 1.213.983 2.196 2.196 2.196h29.807c1.213 0 2.196-.983 2.196-2.196v-29.807c0-1.213-.983-2.196-2.195-2.196z"/><path d="m37.503 83.918h-29.807c-1.213 0-2.196.983-2.196 2.196v29.807c0 1.213.983 2.196 2.196 2.196h29.807c1.213 0 2.196-.983 2.196-2.196v-29.807c0-1.213-.983-2.196-2.196-2.196z"/><path d="m77.039 86.219c-.622-.671-1.012-1.468-1.221-2.301h-28.966c-1.213 0-2.196.983-2.196 2.196v29.807c0 1.213.983 2.196 2.196 2.196h29.807c1.213 0 2.196-.983 2.196-2.196v-27.743z"/><path d="m115.815 83.918h-29.808c-1.213 0-2.196.983-2.196 2.196v29.807c0 1.213.983 2.196 2.196 2.196h29.807c1.213 0 2.196-.983 2.196-2.196v-29.807c0-1.213-.983-2.196-2.195-2.196z"/></g><path d="m25.542 28.979-3.049-11.31-3.088 11.31c-.24.858-.431 1.473-.573 1.846s-.388.708-.74 1.004-.819.444-1.402.444c-.472 0-.86-.088-1.164-.264-.305-.176-.551-.425-.74-.746-.189-.322-.343-.703-.463-1.145s-.227-.851-.322-1.229l-3.139-12.699c-.189-.738-.283-1.3-.283-1.686 0-.489.172-.901.515-1.235.343-.335.768-.502 1.274-.502.695 0 1.162.223 1.402.669s.45 1.094.63 1.943l2.47 11.014 2.766-10.306c.206-.789.39-1.39.553-1.801.163-.412.429-.768.798-1.068s.871-.45 1.505-.45c.643 0 1.143.157 1.499.47s.603.654.74 1.023.322.978.553 1.827l2.792 10.306 2.47-11.014c.12-.575.234-1.025.341-1.351s.292-.618.553-.875c.262-.257.641-.386 1.139-.386s.92.165 1.267.495.521.744.521 1.242c0 .352-.094.914-.283 1.686l-3.139 12.699c-.214.858-.392 1.486-.534 1.885s-.382.748-.721 1.049-.817.45-1.435.45c-.583 0-1.051-.146-1.402-.437-.352-.292-.596-.62-.733-.984s-.329-.991-.578-1.874z" fill="#fa759e"/><path d="m61.339 12.767c1.956 0 3.635.397 5.037 1.19s2.464 1.921 3.185 3.384 1.081 3.18 1.081 5.153c0 1.458-.197 2.783-.592 3.976-.395 1.192-.986 2.226-1.776 3.101-.789.875-1.758 1.544-2.908 2.007-1.149.463-2.466.695-3.95.695-1.475 0-2.796-.238-3.963-.714s-2.14-1.147-2.921-2.014c-.781-.866-1.37-1.909-1.769-3.127s-.598-2.535-.598-3.95c0-1.45.208-2.779.624-3.989s1.019-2.239 1.808-3.088 1.75-1.499 2.882-1.949 2.419-.675 3.86-.675zm5.43 9.701c0-1.381-.223-2.578-.669-3.59s-1.083-1.778-1.911-2.297-1.778-.778-2.85-.778c-.763 0-1.469.144-2.117.431s-1.205.706-1.673 1.255c-.467.549-.836 1.25-1.107 2.104-.27.853-.405 1.812-.405 2.876 0 1.072.135 2.042.405 2.908s.652 1.585 1.145 2.155 1.059.997 1.698 1.28 1.34.425 2.104.425c.978 0 1.876-.244 2.696-.733.819-.489 1.471-1.244 1.956-2.265.486-1.021.728-2.278.728-3.771z" fill="#fa759e"/><path d="m98.348 23.723h-1.338v6.06c0 .798-.176 1.385-.528 1.763-.352.377-.811.566-1.377.566-.609 0-1.081-.197-1.415-.592s-.502-.974-.502-1.737v-14.514c0-.823.184-1.42.553-1.788s.965-.553 1.788-.553h6.215c.858 0 1.591.036 2.2.109s1.158.221 1.647.444c.592.249 1.115.605 1.57 1.068s.8 1.001 1.036 1.615c.236.613.354 1.263.354 1.949 0 1.407-.397 2.53-1.19 3.371s-1.996 1.437-3.609 1.788c.678.36 1.325.892 1.943 1.595s1.169 1.452 1.653 2.245c.485.793.862 1.51 1.132 2.149s.405 1.079.405 1.319c0 .249-.079.495-.238.74-.159.244-.375.437-.65.579s-.592.212-.952.212c-.429 0-.789-.101-1.081-.302-.292-.202-.543-.457-.753-.766s-.495-.763-.856-1.364l-1.531-2.548c-.549-.935-1.04-1.647-1.473-2.136s-.873-.823-1.319-1.004-1.006-.268-1.684-.268zm2.187-7.926h-3.525v5.185h3.423c.918 0 1.69-.079 2.316-.238s1.104-.429 1.435-.811c.33-.382.495-.907.495-1.576 0-.523-.133-.984-.399-1.383s-.635-.697-1.107-.894c-.446-.189-1.325-.283-2.638-.283z" fill="#fa759e"/><path d="m95.318 52.522h4.979c1.295 0 2.406.12 3.332.36s1.767.691 2.522 1.351c1.964 1.681 2.946 4.237 2.946 7.669 0 1.132-.099 2.166-.296 3.101s-.502 1.778-.914 2.528c-.412.751-.939 1.422-1.583 2.014-.506.455-1.059.819-1.66 1.094-.6.274-1.246.467-1.936.579s-1.469.167-2.335.167h-4.979c-.695 0-1.218-.105-1.57-.315s-.581-.506-.688-.888-.161-.877-.161-1.486v-13.832c0-.823.184-1.42.553-1.788.37-.369.966-.554 1.79-.554zm1.48 3.024v12.802h2.895c.635 0 1.132-.017 1.493-.051s.733-.12 1.119-.257.721-.33 1.004-.579c1.278-1.081 1.917-2.942 1.917-5.584 0-1.861-.281-3.255-.843-4.182s-1.255-1.516-2.078-1.769-1.818-.38-2.985-.38z" fill="#fa759e"/><path d="m104.106 107.45-3.049-11.31-3.088 11.31c-.24.858-.431 1.473-.573 1.846s-.388.708-.74 1.004-.819.444-1.402.444c-.472 0-.86-.088-1.164-.264s-.551-.425-.74-.746-.343-.703-.463-1.145-.227-.851-.322-1.229l-3.14-12.7c-.189-.738-.283-1.3-.283-1.686 0-.489.172-.901.515-1.235.343-.335.768-.502 1.274-.502.695 0 1.162.223 1.402.669s.45 1.094.63 1.943l2.47 11.014 2.767-10.306c.206-.789.39-1.39.553-1.801.163-.412.429-.768.798-1.068s.871-.45 1.505-.45c.643 0 1.143.157 1.499.47s.603.654.74 1.023.322.978.553 1.827l2.792 10.306 2.47-11.014c.12-.575.234-1.025.341-1.351s.292-.618.553-.875c.262-.257.641-.386 1.139-.386s.92.165 1.267.495.521.744.521 1.242c0 .352-.094.914-.283 1.686l-3.139 12.699c-.214.858-.392 1.486-.534 1.885s-.382.748-.721 1.049c-.339.3-.817.45-1.435.45-.583 0-1.051-.146-1.402-.437-.352-.292-.596-.62-.733-.984s-.329-.99-.578-1.873z" fill="#fa759e"/><path d="m61.339 91.238c1.956 0 3.635.397 5.037 1.19s2.464 1.921 3.185 3.384 1.081 3.18 1.081 5.153c0 1.458-.197 2.783-.592 3.976-.395 1.192-.986 2.226-1.776 3.101-.789.875-1.758 1.544-2.908 2.007-1.149.463-2.466.695-3.95.695-1.475 0-2.796-.238-3.963-.714s-2.14-1.147-2.921-2.014c-.781-.866-1.37-1.909-1.769-3.127s-.598-2.535-.598-3.95c0-1.45.208-2.779.624-3.989.416-1.209 1.019-2.239 1.808-3.088s1.75-1.499 2.882-1.949 2.419-.675 3.86-.675zm5.43 9.701c0-1.381-.223-2.578-.669-3.59s-1.083-1.778-1.911-2.297-1.778-.778-2.85-.778c-.763 0-1.469.144-2.117.431s-1.205.706-1.673 1.255c-.467.549-.836 1.25-1.107 2.104-.27.853-.405 1.812-.405 2.876 0 1.072.135 2.042.405 2.908s.652 1.585 1.145 2.155 1.059.997 1.698 1.28 1.34.425 2.104.425c.978 0 1.876-.244 2.696-.733.819-.489 1.471-1.244 1.956-2.265.486-1.021.728-2.278.728-3.771z" fill="#fa759e"/><path d="m19.784 102.194h-1.338v6.06c0 .798-.176 1.385-.528 1.763s-.811.566-1.377.566c-.609 0-1.081-.197-1.415-.592s-.502-.974-.502-1.737v-14.514c0-.823.184-1.42.553-1.788.369-.369.965-.553 1.788-.553h6.215c.858 0 1.591.036 2.2.109s1.158.221 1.647.444c.592.249 1.115.605 1.57 1.068s.8 1.001 1.036 1.615c.236.613.354 1.263.354 1.949 0 1.407-.397 2.53-1.19 3.371s-1.996 1.437-3.609 1.788c.678.36 1.325.892 1.943 1.595s1.169 1.452 1.653 2.245c.485.793.862 1.51 1.132 2.149s.405 1.079.405 1.319c0 .249-.079.495-.238.74s-.375.437-.65.579c-.274.142-.592.212-.952.212-.429 0-.789-.101-1.081-.302-.292-.202-.543-.457-.753-.766s-.495-.763-.856-1.364l-1.531-2.548c-.549-.935-1.04-1.647-1.473-2.136s-.873-.823-1.319-1.004c-.444-.178-1.006-.268-1.684-.268zm2.187-7.926h-3.525v5.185h3.423c.918 0 1.69-.079 2.316-.238s1.104-.429 1.435-.811c.33-.382.495-.907.495-1.576 0-.523-.133-.984-.399-1.383s-.635-.697-1.107-.894c-.446-.189-1.325-.283-2.638-.283z" fill="#fa759e"/><path d="m16.754 52.522h4.979c1.295 0 2.406.12 3.332.36s1.767.691 2.522 1.351c1.964 1.681 2.946 4.237 2.946 7.669 0 1.132-.099 2.166-.296 3.101s-.502 1.778-.914 2.528c-.412.751-.939 1.422-1.583 2.014-.506.455-1.059.819-1.66 1.094s-1.246.467-1.936.579-1.469.167-2.335.167h-4.979c-.695 0-1.218-.105-1.57-.315s-.581-.506-.688-.888-.161-.877-.161-1.486v-13.832c0-.823.184-1.42.553-1.788.37-.369.967-.554 1.79-.554zm1.48 3.024v12.802h2.895c.635 0 1.132-.017 1.493-.051.36-.034.733-.12 1.119-.257s.721-.33 1.004-.579c1.278-1.081 1.917-2.942 1.917-5.584 0-1.861-.281-3.255-.843-4.182-.562-.926-1.255-1.516-2.078-1.769s-1.818-.38-2.985-.38z" fill="#fa759e"/><path d="m77.321 78.739c.511-.474 1.094-.819 1.71-1.053l-3.906-4.213c-.427.492-.879.969-1.368 1.422s-.998.868-1.521 1.256l3.906 4.213c.28-.596.668-1.152 1.179-1.625z" fill="#ffd7e5"/><path d="m74.717 49.464c-6.758-7.288-18.143-7.717-25.431-.96-7.288 6.758-7.717 18.143-.96 25.431s18.143 7.717 25.431.96 7.718-18.143.96-25.431z" fill="#fa759e"/><path d="m49.286 51.798c7.288-6.758 18.673-6.328 25.431.96 2.807 3.027 4.354 6.762 4.705 10.577.447-4.907-1.091-9.974-4.705-13.871-6.757-7.288-18.143-7.717-25.431-.96-4.261 3.951-6.159 9.483-5.665 14.854.389-4.268 2.275-8.416 5.665-11.56z" fill="#fff"/><path d="m61.522 49.613c-6.664 0-12.087 5.422-12.087 12.087 0 6.664 5.422 12.087 12.087 12.087s12.086-5.423 12.086-12.087c0-6.665-5.422-12.087-12.086-12.087z" fill="#6dc9f7"/><path d="m69.021 62.7c-.553 0-1-.448-1-1 0-3.584-2.916-6.5-6.5-6.5-.553 0-1-.448-1-1s.447-1 1-1c4.687 0 8.5 3.813 8.5 8.5 0 .552-.447 1-1 1z" fill="#fff"/><path d="m96.352 91.477-11.55-12.456c-1.979-2.135-5.346-2.262-7.48-.282-2.135 1.979-2.262 5.346-.282 7.48l11.55 12.456c1.979 2.135 5.346 2.262 7.48.282 2.134-1.979 2.261-5.345.282-7.48z" fill="#0089ef"/><path d="m37.503 4.393h-29.807c-1.762 0-3.196 1.434-3.196 3.196v29.807c0 1.762 1.434 3.196 3.196 3.196h29.807c1.763 0 3.196-1.434 3.196-3.196v-29.807c0-1.762-1.433-3.196-3.196-3.196zm1.196 33.004c0 .659-.537 1.196-1.196 1.196h-29.807c-.659 0-1.196-.537-1.196-1.196v-29.808c0-.66.537-1.196 1.196-1.196h29.807c.659 0 1.196.537 1.196 1.196z" fill="#3a2c60"/><path d="m46.852 40.592h29.808c1.762 0 3.195-1.434 3.195-3.196v-29.807c0-1.762-1.434-3.196-3.195-3.196h-29.808c-1.763 0-3.196 1.434-3.196 3.196v29.807c-.001 1.763 1.433 3.196 3.196 3.196zm-1.197-33.003c0-.66.537-1.196 1.196-1.196h29.808c.659 0 1.195.537 1.195 1.196v29.807c0 .659-.536 1.196-1.195 1.196h-29.807c-.659 0-1.196-.537-1.196-1.196v-29.807z" fill="#3a2c60"/><path d="m115.814 4.393h-29.807c-1.762 0-3.195 1.434-3.195 3.196v29.807c0 1.762 1.434 3.196 3.195 3.196h29.808c1.763 0 3.196-1.434 3.196-3.196v-29.807c0-1.762-1.434-3.196-3.197-3.196zm1.197 33.004c0 .659-.537 1.196-1.196 1.196h-29.808c-.659 0-1.195-.537-1.195-1.196v-29.808c0-.66.536-1.196 1.195-1.196h29.808c.659 0 1.196.537 1.196 1.196z" fill="#3a2c60"/><path d="m5.5 67.148c.553 0 1-.448 1-1v-6.562c0-.552-.447-1-1-1s-1 .448-1 1v6.562c0 .552.447 1 1 1z" fill="#3a2c60"/><path d="m37.503 43.656h-29.807c-1.763 0-3.196 1.434-3.196 3.196v6.68c0 .552.447 1 1 1s1-.448 1-1v-6.68c0-.659.537-1.196 1.196-1.196h29.807c.659 0 1.196.537 1.196 1.196v29.807c0 .66-.537 1.196-1.196 1.196h-29.807c-.659 0-1.196-.537-1.196-1.196v-5.274c0-.552-.447-1-1-1s-1 .448-1 1v5.274c0 1.762 1.434 3.196 3.196 3.196h29.807c1.763 0 3.196-1.434 3.196-3.196v-29.807c0-1.763-1.433-3.196-3.196-3.196z" fill="#3a2c60"/><path d="m115.814 43.656h-29.807c-1.762 0-3.195 1.434-3.195 3.196v29.773c-1.128-.354-2.339-.388-3.485-.09l-2.884-3.11c2.472-3.133 3.906-6.943 4.06-11.008.191-5.07-1.603-9.911-5.053-13.631-3.449-3.721-8.142-5.875-13.212-6.066-5.071-.193-9.912 1.603-13.632 5.053-3.721 3.45-5.875 8.142-6.066 13.212s1.603 9.912 5.053 13.632 8.143 5.875 13.213 6.066c.245.009.489.014.733.014 3.802 0 7.44-1.135 10.552-3.23l2.881 3.106c-.196.576-.31 1.184-.334 1.811-.007.18-.002.358.006.535h-27.792c-1.763 0-3.196 1.434-3.196 3.196v29.808c0 1.762 1.434 3.196 3.196 3.196h29.808c1.762 0 3.195-1.434 3.195-3.196v-25.197l2.957 3.189v22.006c0 1.762 1.434 3.196 3.195 3.196h29.808c1.763 0 3.196-1.434 3.196-3.196v-29.807c0-1.762-1.434-3.196-3.196-3.196h-26.036l-2.84-3.063h28.876c1.763 0 3.196-1.434 3.196-3.196v-29.807c0-1.763-1.434-3.196-3.197-3.196zm-31.746 36.045 11.55 12.457c.776.836 1.18 1.93 1.136 3.08-.043 1.15-.528 2.211-1.364 2.986-1.737 1.611-4.458 1.507-6.067-.229l-11.55-12.457c-.776-.836-1.18-1.93-1.136-3.08.043-1.15.528-2.211 1.364-2.986.825-.765 1.873-1.144 2.918-1.144 1.154.001 2.305.462 3.149 1.373zm-23.187-1.018c-4.536-.171-8.734-2.099-11.821-5.428s-4.692-7.66-4.521-12.196c.171-4.537 2.099-8.735 5.427-11.821 3.168-2.938 7.244-4.533 11.54-4.533.219 0 .438.004.657.012 4.536.171 8.734 2.099 11.82 5.427 3.087 3.329 4.692 7.66 4.521 12.196s-2.099 8.734-5.428 11.821-7.659 4.692-12.195 4.522zm12.814-2.428c.248-.208.502-.405.741-.626.239-.222.453-.462.679-.694l2.293 2.473c-.266.179-.524.374-.767.598-.241.223-.455.466-.655.719zm4.159 39.666c0 .659-.536 1.196-1.195 1.196h-29.807c-.659 0-1.196-.537-1.196-1.196v-29.807c0-.659.537-1.196 1.196-1.196h28.215c.283.724.697 1.396 1.24 1.98l1.549 1.67v27.353zm37.96-31.003c.659 0 1.196.537 1.196 1.196v29.808c0 .659-.537 1.196-1.196 1.196h-29.807c-.659 0-1.195-.537-1.195-1.196v-19.85l3.044 3.283c1.238 1.335 2.926 2.012 4.617 2.012 1.531 0 3.067-.555 4.276-1.676 1.229-1.139 1.94-2.694 2.004-4.377.063-1.684-.529-3.288-1.668-4.516l-5.452-5.88zm1.197-8.259c0 .66-.537 1.196-1.196 1.196h-29.808c-.659 0-1.195-.537-1.195-1.196v-29.807c0-.659.536-1.196 1.195-1.196h29.808c.659 0 1.196.537 1.196 1.196z" fill="#3a2c60"/><path d="m37.503 82.918h-29.807c-1.763 0-3.196 1.434-3.196 3.196v29.808c0 1.762 1.434 3.196 3.196 3.196h29.807c1.763 0 3.196-1.434 3.196-3.196v-29.808c0-1.762-1.433-3.196-3.196-3.196zm1.196 33.003c0 .659-.537 1.196-1.196 1.196h-29.807c-.659 0-1.196-.537-1.196-1.196v-29.807c0-.659.537-1.196 1.196-1.196h29.807c.659 0 1.196.537 1.196 1.196z" fill="#3a2c60"/><path d="m61.522 48.613c-7.217 0-13.088 5.871-13.088 13.087s5.871 13.086 13.087 13.086 13.087-5.87 13.087-13.086-5.87-13.087-13.086-13.087zm-.001 24.173c-6.113 0-11.087-4.973-11.087-11.086s4.974-11.087 11.088-11.087c6.113 0 11.086 4.974 11.086 11.087s-4.973 11.086-11.087 11.086z" fill="#3a2c60"/></svg>